<svg xmlns="http://www.w3.org/2000/svg" viewBox="0 0 100 100">
  <defs>
    <linearGradient id="goldGradient" x1="0%" y1="0%" x2="100%" y2="100%">
      <stop offset="0%" style="stop-color:#DAA520"/>
      <stop offset="50%" style="stop-color:#B8860B"/>
      <stop offset="100%" style="stop-color:#8B6914"/>
    </linearGradient>
  </defs>
  <!-- Piano keys representation -->
  <rect x="10" y="25" width="80" height="50" rx="8" fill="url(#goldGradient)" stroke="#8B6914" stroke-width="2"/>
  <!-- White keys -->
  <rect x="15" y="35" width="8" height="30" rx="1" fill="#fff" stroke="#8B6914" stroke-width="0.5"/>
  <rect x="26" y="35" width="8" height="30" rx="1" fill="#fff" stroke="#8B6914" stroke-width="0.5"/>
  <rect x="37" y="35" width="8" height="30" rx="1" fill="#fff" stroke="#8B6914" stroke-width="0.5"/>
  <rect x="48" y="35" width="8" height="30" rx="1" fill="#fff" stroke="#8B6914" stroke-width="0.5"/>
  <rect x="59" y="35" width="8" height="30" rx="1" fill="#fff" stroke="#8B6914" stroke-width="0.5"/>
  <rect x="70" y="35" width="8" height="30" rx="1" fill="#fff" stroke="#8B6914" stroke-width="0.5"/>
  <rect x="81" y="35" width="8" height="30" rx="1" fill="#fff" stroke="#8B6914" stroke-width="0.5"/>
  <!-- Black keys -->
  <rect x="21" y="35" width="6" height="18" rx="1" fill="#1d1d1f"/>
  <rect x="32" y="35" width="6" height="18" rx="1" fill="#1d1d1f"/>
  <rect x="54" y="35" width="6" height="18" rx="1" fill="#1d1d1f"/>
  <rect x="65" y="35" width="6" height="18" rx="1" fill="#1d1d1f"/>
  <rect x="76" y="35" width="6" height="18" rx="1" fill="#1d1d1f"/>
</svg>
