<svg xmlns="http://www.w3.org/2000/svg" viewBox="0 0 512 512">
  <defs>
    <linearGradient id="grad" x1="0%" y1="0%" x2="100%" y2="100%">
      <stop offset="0%" style="stop-color:#667eea"/>
      <stop offset="100%" style="stop-color:#764ba2"/>
    </linearGradient>
  </defs>
  
  <!-- Background -->
  <rect width="512" height="512" rx="96" fill="url(#grad)"/>
  
  <!-- Piano Keys -->
  <g transform="translate(80, 140)">
    <!-- White keys background -->
    <rect x="0" y="0" width="352" height="232" rx="12" fill="white" opacity="0.95"/>
    
    <!-- White key separators -->
    <rect x="50" y="0" width="2" height="232" fill="#E5E5EA"/>
    <rect x="100" y="0" width="2" height="232" fill="#E5E5EA"/>
    <rect x="150" y="0" width="2" height="232" fill="#E5E5EA"/>
    <rect x="200" y="0" width="2" height="232" fill="#E5E5EA"/>
    <rect x="250" y="0" width="2" height="232" fill="#E5E5EA"/>
    <rect x="300" y="0" width="2" height="232" fill="#E5E5EA"/>
    
    <!-- Black keys -->
    <rect x="35" y="0" width="30" height="140" rx="4" fill="#1C1C1E"/>
    <rect x="85" y="0" width="30" height="140" rx="4" fill="#1C1C1E"/>
    <rect x="185" y="0" width="30" height="140" rx="4" fill="#1C1C1E"/>
    <rect x="235" y="0" width="30" height="140" rx="4" fill="#1C1C1E"/>
    <rect x="285" y="0" width="30" height="140" rx="4" fill="#1C1C1E"/>
  </g>
  
  <!-- Calendar badge -->
  <g transform="translate(300, 40)">
    <circle cx="56" cy="56" r="56" fill="#FF3B30"/>
    <text x="56" y="70" text-anchor="middle" font-family="-apple-system, BlinkMacSystemFont, sans-serif" font-size="56" font-weight="700" fill="white">P</text>
  </g>
</svg>
